<svg id="Layer_1" data-name="Layer 1" xmlns="http://www.w3.org/2000/svg" viewBox="0 0 210.75 45.55"><defs><style>.cls-1,.cls-3{fill:#a7a9ac;}.cls-1{stroke:#a7a9ac;stroke-linecap:round;stroke-miterlimit:10;stroke-width:1.08px;opacity:0.3;}.cls-2{fill:#000000;}</style></defs><title>logo</title><line class="cls-1" x1="154.31" y1="13.58" x2="154.31" y2="45.01"/><path class="cls-2" d="M62.92,297.58l-4.39-14.43v14.43H55.31V254.73h3.22v24.92l4.83-10.71h2.94l-5.38,11.6,5.38,17H62.92Z" transform="translate(-55.31 -254.45)"/><path class="cls-2" d="M73.63,297.86c-2.22,0-7.61-1.78-7.61-14.6s5.38-14.6,7.61-14.6a5.89,5.89,0,0,1,1.83.22v2.39a6.38,6.38,0,0,0-1.33-.11c-1.61,0-4.83,1.44-4.83,12.1s3.22,12.1,4.83,12.1a5.85,5.85,0,0,0,1.33-.11v2.39A5.91,5.91,0,0,1,73.63,297.86Z" transform="translate(-55.31 -254.45)"/><path class="cls-2" d="M83.57,276.43a11.12,11.12,0,0,0,1.5,5.5,14.24,14.24,0,0,1,1.72,6.16c0,5.33-2.22,8-5,10.6l-1.89-1.89A11,11,0,0,0,83.46,289a13.87,13.87,0,0,0-1.78-6,12.89,12.89,0,0,1-1.5-5.94c0-3.27,1.89-6.05,5.16-9l1.78,1.78C85.07,271.83,83.57,274.32,83.57,276.43Z" transform="translate(-55.31 -254.45)"/><path class="cls-2" d="M94.89,297.58c-3.11,0-6.05-1.5-6.05-9.16v-17H87.51v-2.5H89v-5.55h3v5.55h3.89v2.5H92.06v17.65c0,4.77,1.22,6,3.22,6a6.86,6.86,0,0,0,1.11-.11v2.44A8.32,8.32,0,0,1,94.89,297.58Z" transform="translate(-55.31 -254.45)"/><path class="cls-2" d="M101.83,297.86c-2.28,0-6.16-1.28-6.16-14.6s3.89-14.6,6.16-14.6,6.16,1.28,6.16,14.6S104.1,297.86,101.83,297.86Zm0-26.7c-1.28,0-2.89,1.72-2.89,12.1s1.61,12.1,2.89,12.1,2.89-1.72,2.89-12.1S103.1,271.16,101.83,271.16Z" transform="translate(-55.31 -254.45)"/><path class="cls-2" d="M115.93,271.44c-2.72,0-3.89,2.22-3.89,5v21.15h-3.22V268.94h3.05v1.72a4.32,4.32,0,0,1,3.61-1.72h1.28v2.5h-0.83Z" transform="translate(-55.31 -254.45)"/><path class="cls-2" d="M118.53,286.48c0.33,6.94,2.61,8.88,4.55,8.88a3.42,3.42,0,0,0,.83-0.06v2.44a6.23,6.23,0,0,1-1.11.11c-3.44,0-7.66-2.39-7.66-14.65,0-13.32,4-14.54,6.22-14.54s4.94,1.94,4.94,7.55C126.3,282.82,121.52,286.2,118.53,286.48Zm2.78-15.32c-1.22,0-2.89,1.05-2.89,12a3.44,3.44,0,0,0,.06.78c2.33-.28,4.66-3.33,4.66-7.88C123.13,272.27,122.41,271.16,121.3,271.16Z" transform="translate(-55.31 -254.45)"/><path class="cls-2" d="M134.51,271.44v26.15h-3.22V271.44H129.9v-2.5h1.39v-5.33c0-7.66,2.78-9.16,6.05-9.16a8.32,8.32,0,0,1,1.5.17v2.44a5.48,5.48,0,0,0-1-.11c-2.11,0-3.33,1.22-3.33,6v6h4.33v2.5h-4.33Z" transform="translate(-55.31 -254.45)"/><path class="cls-2" d="M138,297.58V268.94h3.22v28.64H138Zm0.22-34.14v-5.22H141v5.22h-2.78Z" transform="translate(-55.31 -254.45)"/><path class="cls-2" d="M151.5,297.58l-3.66-12-3.61,12H141.5l4.5-14.93-4.11-13.71H145l3.33,11,3.28-11h2.66l-4.16,13.77,4.5,14.88H151.5Z" transform="translate(-55.31 -254.45)"/><path class="cls-2" d="M160.93,297.58c-3.11,0-6.05-1.5-6.05-9.16v-17h-1.33v-2.5H155v-5.55h3v5.55h3.89v2.5H158.1v17.65c0,4.77,1.22,6,3.22,6a6.86,6.86,0,0,0,1.11-.11v2.44A8.32,8.32,0,0,1,160.93,297.58Z" transform="translate(-55.31 -254.45)"/><path class="cls-2" d="M167.76,297.86c-3.39,0-5.5-2.5-5.5-7.77V268.94h3.22v22.54c0,2,.89,3.89,2.28,3.89s2.28-1.89,2.28-3.89V268.94h3.22v21.15C173.25,295.36,171.14,297.86,167.76,297.86Z" transform="translate(-55.31 -254.45)"/><path class="cls-2" d="M181.74,271.44c-2.72,0-3.89,2.22-3.89,5v21.15h-3.22V268.94h3.05v1.72a4.32,4.32,0,0,1,3.61-1.72h1.28v2.5h-0.83Z" transform="translate(-55.31 -254.45)"/><path class="cls-2" d="M184.35,286.48c0.33,6.94,2.61,8.88,4.55,8.88a3.42,3.42,0,0,0,.83-0.06v2.44a6.23,6.23,0,0,1-1.11.11c-3.44,0-7.66-2.39-7.66-14.65,0-13.32,4-14.54,6.22-14.54s4.94,1.94,4.94,7.55C192.12,282.82,187.34,286.2,184.35,286.48Zm2.78-15.32c-1.22,0-2.89,1.05-2.89,12a3.44,3.44,0,0,0,.06.78c2.33-.28,4.66-3.33,4.66-7.88C189,272.27,188.23,271.16,187.12,271.16Z" transform="translate(-55.31 -254.45)"/><path class="cls-2" d="M196.72,276.43a11.12,11.12,0,0,0,1.5,5.5,14.24,14.24,0,0,1,1.72,6.16c0,5.33-2.22,8-5,10.6l-1.89-1.89a11,11,0,0,0,3.55-7.77,13.87,13.87,0,0,0-1.78-6,12.89,12.89,0,0,1-1.5-5.94c0-3.27,1.89-6.05,5.16-9l1.78,1.78C198.22,271.83,196.72,274.32,196.72,276.43Z" transform="translate(-55.31 -254.45)"/><path class="cls-3" d="M223,273.67a0.48,0.48,0,0,1-.15.37,0.51,0.51,0,0,1-.36.14,0.48,0.48,0,0,1-.36-0.16,0.53,0.53,0,0,1-.15-0.37v-1a1.71,1.71,0,0,1-.9.26,1.81,1.81,0,0,1-1.35-.59,2.06,2.06,0,0,1,0-2.83,1.87,1.87,0,0,1,2.72,0,2,2,0,0,1,.56,1.41v2.81Zm-1-2.83a0.93,0.93,0,0,0-.27-0.67,0.88,0.88,0,0,0-1.28,0,0.93,0.93,0,0,0-.27.67,0.94,0.94,0,0,0,.27.67,0.88,0.88,0,0,0,1.28,0A0.94,0.94,0,0,0,222,270.85Z" transform="translate(-55.31 -254.45)"/><path class="cls-3" d="M228.14,272.13a1.92,1.92,0,0,1-3.28-1.36s0-.44,0-1.34a0.52,0.52,0,0,1,.51-0.51,0.52,0.52,0,0,1,.35.14,0.46,0.46,0,0,1,.16.36v1.35a0.9,0.9,0,1,0,1.81,0v-1.34a0.47,0.47,0,0,1,.14-0.36,0.49,0.49,0,0,1,.36-0.15,0.53,0.53,0,0,1,.36.14,0.45,0.45,0,0,1,.15.35l0,1.36A1.85,1.85,0,0,1,228.14,272.13Z" transform="translate(-55.31 -254.45)"/><path class="cls-3" d="M234.35,272.21a0.44,0.44,0,0,1-.17.36,0.56,0.56,0,0,1-.35.13,0.44,0.44,0,0,1-.44-0.27,1.83,1.83,0,0,1-1,.27,1.92,1.92,0,1,1,1.93-1.92v1.42Zm-1-1.43a0.9,0.9,0,1,0-.26.64A0.87,0.87,0,0,0,233.34,270.77Z" transform="translate(-55.31 -254.45)"/><path class="cls-3" d="M237.24,272.18a0.48,0.48,0,0,1-.2.37,0.4,0.4,0,0,1-.64,0,0.52,0.52,0,0,1-.18-0.35v-4.28a0.5,0.5,0,0,1,.19-0.37,0.52,0.52,0,0,1,.32-0.14,0.49,0.49,0,0,1,.32.17,0.55,0.55,0,0,1,.18.37v4.28Z" transform="translate(-55.31 -254.45)"/><path class="cls-3" d="M240.14,272.18a0.46,0.46,0,0,1-.18.36,0.54,0.54,0,0,1-.33.15,0.49,0.49,0,0,1-.33-0.18,0.52,0.52,0,0,1-.18-0.35v-2.9a0.46,0.46,0,0,1,.14-0.32,0.68,0.68,0,0,1,.27-0.18,0.69,0.69,0,0,1-.28-0.19,0.43,0.43,0,0,1-.13-0.3,0.51,0.51,0,0,1,.18-0.36,0.49,0.49,0,0,1,.33-0.18,0.53,0.53,0,0,1,.33.16,0.46,0.46,0,0,1,.18.35,0.47,0.47,0,0,1-.13.3,0.69,0.69,0,0,1-.27.21,0.78,0.78,0,0,1,.27.21,0.46,0.46,0,0,1,.13.3v2.91Z" transform="translate(-55.31 -254.45)"/><path class="cls-3" d="M244.73,272.2a0.51,0.51,0,0,1-.14.37,0.47,0.47,0,0,1-.34.15h-0.41a1.72,1.72,0,0,1-1.29-.56,1.91,1.91,0,0,1-.53-1.38v-2.32a0.48,0.48,0,0,1,.15-0.36,0.47,0.47,0,0,1,.34-0.14q0.53,0,.5.83h1.23a0.42,0.42,0,0,1,.35.18,0.6,0.6,0,0,1,.11.34,0.52,0.52,0,0,1-.14.37,0.46,0.46,0,0,1-.35.15H243v0.91a0.91,0.91,0,0,0,.26.65,0.81,0.81,0,0,0,.6.27h0.39a0.46,0.46,0,0,1,.34.15A0.52,0.52,0,0,1,244.73,272.2Z" transform="translate(-55.31 -254.45)"/><path class="cls-3" d="M251,270.55a2.31,2.31,0,0,1-.47,1.45,2.06,2.06,0,0,1-1.26.77v0.87a0.5,0.5,0,0,1-.15.36,0.49,0.49,0,0,1-.36.15q-0.53,0-.53-0.83c0-.08,0-0.19,0-0.32s0-.21,0-0.25A2.06,2.06,0,0,1,247,272a2.3,2.3,0,0,1-.47-1.44v-1.13a0.48,0.48,0,0,1,.15-0.36,0.5,0.5,0,0,1,.36-0.15,0.5,0.5,0,0,1,.37.15,0.5,0.5,0,0,1,.15.36v1.12a1.21,1.21,0,0,0,.33.89,1.34,1.34,0,0,0,1.76,0,1.21,1.21,0,0,0,.33-0.89v-1.12a0.5,0.5,0,0,1,.15-0.36,0.51,0.51,0,0,1,.73,0,0.51,0.51,0,0,1,.15.36v1.13Z" transform="translate(-55.31 -254.45)"/><path class="cls-3" d="M221.83,279.21a1.91,1.91,0,0,1-.53,1.35,1.7,1.7,0,0,1-1.28.56h-0.4a0.47,0.47,0,0,1-.35-0.15,0.49,0.49,0,0,1-.15-0.36,0.5,0.5,0,0,1,.14-0.36,0.46,0.46,0,0,1,.35-0.15H220a0.79,0.79,0,0,0,.69-0.38h-1.59v-0.52a1.9,1.9,0,0,1,.53-1.36,1.7,1.7,0,0,1,1.28-.56h0.4a0.47,0.47,0,0,1,.35.15,0.51,0.51,0,0,1,0,.71,0.46,0.46,0,0,1-.35.15h-0.4a0.78,0.78,0,0,0-.7.4h1.6v0.5Z" transform="translate(-55.31 -254.45)"/><path class="cls-3" d="M227.52,279.78h-2.63a0.86,0.86,0,0,0,.73.37H226a0.52,0.52,0,0,1,.35.15,0.47,0.47,0,0,1,.15.36,0.44,0.44,0,0,1-.32.46,2.36,2.36,0,0,1-.61.05,1.92,1.92,0,1,1,1.31-3.33,1.8,1.8,0,0,1,.6,1.25v0.69Zm-1.21-1a0.75,0.75,0,0,0-.69-0.41,0.86,0.86,0,0,0-.75.41h1.45Z" transform="translate(-55.31 -254.45)"/><path class="cls-3" d="M231.95,277.84a0.47,0.47,0,0,1-.13.33,0.42,0.42,0,0,1-.32.14h-0.4a0.81,0.81,0,0,0-.61.27,0.93,0.93,0,0,0-.26.66v1.4a0.43,0.43,0,0,1-.14.34,0.46,0.46,0,0,1-.32.13,0.44,0.44,0,0,1-.32-0.13,0.45,0.45,0,0,1-.14-0.34v-1.4a1.88,1.88,0,0,1,.49-1.29,1.68,1.68,0,0,1,1.19-.59l-0.13.14a0.39,0.39,0,0,1,.23-0.14h0.62v0.07A0.46,0.46,0,0,1,231.95,277.84Z" transform="translate(-55.31 -254.45)"/><path class="cls-3" d="M237.5,277.87a0.45,0.45,0,0,1,0,.19l-1.26,2.68a0.55,0.55,0,0,1-.49.38,0.4,0.4,0,0,1-.31-0.12,1.75,1.75,0,0,1-.17-0.27l-1.36-2.66a0.4,0.4,0,0,1,0-.2,0.49,0.49,0,0,1,.15-0.36,0.49,0.49,0,0,1,.35-0.15,0.5,0.5,0,0,1,.48.31l0.88,1.75,0.82-1.75a0.5,0.5,0,0,1,.48-0.31,0.49,0.49,0,0,1,.35.15A0.49,0.49,0,0,1,237.5,277.87Z" transform="translate(-55.31 -254.45)"/><path class="cls-3" d="M240.37,280.65a0.46,0.46,0,0,1-.18.36,0.54,0.54,0,0,1-.33.15,0.49,0.49,0,0,1-.33-0.18,0.52,0.52,0,0,1-.18-0.35v-2.9a0.46,0.46,0,0,1,.14-0.32,0.68,0.68,0,0,1,.27-0.18,0.69,0.69,0,0,1-.28-0.19,0.43,0.43,0,0,1-.13-0.3,0.51,0.51,0,0,1,.18-0.36,0.49,0.49,0,0,1,.33-0.18,0.53,0.53,0,0,1,.33.16,0.46,0.46,0,0,1,.18.35,0.47,0.47,0,0,1-.13.3,0.69,0.69,0,0,1-.27.21,0.78,0.78,0,0,1,.27.21,0.46,0.46,0,0,1,.13.3v2.91Z" transform="translate(-55.31 -254.45)"/><path class="cls-3" d="M244.82,277.81a0.5,0.5,0,0,1-.14.35,0.45,0.45,0,0,1-.34.15h-0.4a0.79,0.79,0,0,0-.59.26,0.94,0.94,0,0,0,0,1.28,0.75,0.75,0,0,0,.59.26h0.39a0.47,0.47,0,0,1,.35.15,0.5,0.5,0,0,1,.15.36,0.5,0.5,0,0,1-.46.51h-0.43a1.7,1.7,0,0,1-1.28-.56,2,2,0,0,1,0-2.72,1.7,1.7,0,0,1,1.28-.56h0.4a0.46,0.46,0,0,1,.34.15A0.5,0.5,0,0,1,244.82,277.81Z" transform="translate(-55.31 -254.45)"/><path class="cls-3" d="M250.53,279.78H247.9a0.86,0.86,0,0,0,.73.37h0.43a0.52,0.52,0,0,1,.35.15,0.47,0.47,0,0,1,.15.36,0.44,0.44,0,0,1-.32.46,2.36,2.36,0,0,1-.61.05,1.92,1.92,0,1,1,1.31-3.33,1.8,1.8,0,0,1,.6,1.25v0.69Zm-1.21-1a0.75,0.75,0,0,0-.69-0.41,0.86,0.86,0,0,0-.75.41h1.45Z" transform="translate(-55.31 -254.45)"/><path class="cls-3" d="M222.86,286.34a0.45,0.45,0,0,1,0,.19l-1.26,2.68a0.55,0.55,0,0,1-.49.38,0.4,0.4,0,0,1-.31-0.12,1.76,1.76,0,0,1-.17-0.27l-1.36-2.66a0.4,0.4,0,0,1,0-.2,0.49,0.49,0,0,1,.15-0.36,0.49,0.49,0,0,1,.35-0.15,0.5,0.5,0,0,1,.48.31l0.88,1.75,0.82-1.75a0.5,0.5,0,0,1,.48-0.32,0.49,0.49,0,0,1,.35.15A0.49,0.49,0,0,1,222.86,286.34Z" transform="translate(-55.31 -254.45)"/><path class="cls-3" d="M228.51,289.14a0.44,0.44,0,0,1-.17.36,0.56,0.56,0,0,1-.35.13,0.44,0.44,0,0,1-.44-0.27,1.83,1.83,0,0,1-1,.27,1.92,1.92,0,1,1,1.93-1.92v1.42Zm-1-1.43a0.9,0.9,0,1,0-.26.64A0.87,0.87,0,0,0,227.5,287.71Z" transform="translate(-55.31 -254.45)"/><path class="cls-3" d="M231.4,289.12a0.48,0.48,0,0,1-.2.37,0.4,0.4,0,0,1-.64,0,0.52,0.52,0,0,1-.18-0.35v-4.28a0.5,0.5,0,0,1,.19-0.37,0.52,0.52,0,0,1,.32-0.14,0.49,0.49,0,0,1,.32.17,0.55,0.55,0,0,1,.18.37v4.28Z" transform="translate(-55.31 -254.45)"/><path class="cls-3" d="M236.53,289.06a1.92,1.92,0,0,1-3.28-1.35s0-.44,0-1.34a0.52,0.52,0,0,1,.51-0.51,0.52,0.52,0,0,1,.35.14,0.46,0.46,0,0,1,.16.36v1.35a0.9,0.9,0,1,0,1.81,0v-1.34a0.47,0.47,0,0,1,.14-0.36,0.49,0.49,0,0,1,.36-0.15,0.53,0.53,0,0,1,.36.14,0.45,0.45,0,0,1,.15.35l0,1.36A1.85,1.85,0,0,1,236.53,289.06Z" transform="translate(-55.31 -254.45)"/><path class="cls-3" d="M242.72,288.24h-2.63a0.86,0.86,0,0,0,.73.37h0.43a0.52,0.52,0,0,1,.35.15,0.47,0.47,0,0,1,.15.36,0.44,0.44,0,0,1-.32.46,2.36,2.36,0,0,1-.61.05,1.92,1.92,0,1,1,1.31-3.33,1.8,1.8,0,0,1,.6,1.25v0.69Zm-1.21-1a0.75,0.75,0,0,0-.69-0.41,0.86,0.86,0,0,0-.75.41h1.45Z" transform="translate(-55.31 -254.45)"/><path class="cls-3" d="M223,296.18a1.93,1.93,0,1,1-.56-1.36A1.85,1.85,0,0,1,223,296.18Zm-1,0a0.9,0.9,0,1,0-.26.64A0.87,0.87,0,0,0,222,296.18Z" transform="translate(-55.31 -254.45)"/><path class="cls-3" d="M228.7,297.58a0.53,0.53,0,0,1-.52.52,0.52,0.52,0,0,1-.35-0.14,0.45,0.45,0,0,1-.16-0.36v-1.36a0.9,0.9,0,0,0-.9-0.9,0.85,0.85,0,0,0-.63.26,0.87,0.87,0,0,0-.26.63v1.34a0.53,0.53,0,0,1-.52.52A0.52,0.52,0,0,1,225,298a0.47,0.47,0,0,1-.15-0.37v-1.35a1.92,1.92,0,0,1,3.84,0S228.7,296.69,228.7,297.58Z" transform="translate(-55.31 -254.45)"/><path class="cls-3" d="M238.24,296.1a2,2,0,0,1-.56,1.41,1.87,1.87,0,0,1-2.72,0,2.06,2.06,0,0,1,0-2.83,1.81,1.81,0,0,1,1.35-.59,1.75,1.75,0,0,1,.9.25v-1a0.52,0.52,0,0,1,.15-0.37,0.48,0.48,0,0,1,.36-0.16,0.51,0.51,0,0,1,.36.14,0.48,0.48,0,0,1,.15.37v2.81Zm-1,0a0.93,0.93,0,0,0-.27-0.67,0.88,0.88,0,0,0-1.28,0,0.93,0.93,0,0,0-.27.67,0.94,0.94,0,0,0,.27.67,0.88,0.88,0,0,0,1.28,0A0.94,0.94,0,0,0,237.22,296.1Z" transform="translate(-55.31 -254.45)"/><path class="cls-3" d="M241.13,297.58a0.46,0.46,0,0,1-.18.36,0.54,0.54,0,0,1-.33.15,0.49,0.49,0,0,1-.33-0.18,0.52,0.52,0,0,1-.18-0.35v-2.9a0.46,0.46,0,0,1,.14-0.32,0.68,0.68,0,0,1,.27-0.18,0.69,0.69,0,0,1-.28-0.19,0.43,0.43,0,0,1-.13-0.3,0.51,0.51,0,0,1,.18-0.36,0.49,0.49,0,0,1,.33-0.18,0.53,0.53,0,0,1,.33.16,0.46,0.46,0,0,1,.18.35,0.47,0.47,0,0,1-.13.3,0.69,0.69,0,0,1-.27.21,0.78,0.78,0,0,1,.27.21,0.46,0.46,0,0,1,.13.3v2.91Z" transform="translate(-55.31 -254.45)"/><path class="cls-3" d="M245.61,296.15a1.91,1.91,0,0,1-.53,1.35,1.7,1.7,0,0,1-1.28.56h-0.4a0.47,0.47,0,0,1-.35-0.15,0.49,0.49,0,0,1-.15-0.36,0.5,0.5,0,0,1,.14-0.36,0.46,0.46,0,0,1,.35-0.15h0.4a0.79,0.79,0,0,0,.69-0.38h-1.59v-0.52a1.9,1.9,0,0,1,.53-1.36,1.7,1.7,0,0,1,1.28-.56h0.4a0.47,0.47,0,0,1,.35.15,0.51,0.51,0,0,1,0,.71,0.46,0.46,0,0,1-.35.15h-0.4a0.78,0.78,0,0,0-.7.4h1.6v0.5Z" transform="translate(-55.31 -254.45)"/><path class="cls-3" d="M251.39,296.26a2,2,0,0,1-.56,1.41,1.82,1.82,0,0,1-1.36.59,1.7,1.7,0,0,1-.9-0.26v1a0.53,0.53,0,0,1-.15.37,0.48,0.48,0,0,1-.36.16,0.51,0.51,0,0,1-.36-0.14,0.48,0.48,0,0,1-.15-0.37v-2.81a2,2,0,0,1,.56-1.42,1.87,1.87,0,0,1,2.72,0A2,2,0,0,1,251.39,296.26Zm-1,0a0.93,0.93,0,0,0-.27-0.67,0.88,0.88,0,0,0-1.28,0,0.93,0.93,0,0,0-.27.67,0.94,0.94,0,0,0,.27.67,0.88,0.88,0,0,0,1.28,0A0.94,0.94,0,0,0,250.38,296.25Z" transform="translate(-55.31 -254.45)"/><path class="cls-3" d="M254.2,297.58a0.48,0.48,0,0,1-.2.37,0.4,0.4,0,0,1-.64,0,0.52,0.52,0,0,1-.18-0.35v-4.28a0.5,0.5,0,0,1,.19-0.37,0.52,0.52,0,0,1,.32-0.14,0.49,0.49,0,0,1,.32.17,0.55,0.55,0,0,1,.18.37v4.28Z" transform="translate(-55.31 -254.45)"/><path class="cls-3" d="M259.88,297.61a0.44,0.44,0,0,1-.17.36,0.56,0.56,0,0,1-.35.13,0.44,0.44,0,0,1-.44-0.27,1.83,1.83,0,0,1-1,.27,1.92,1.92,0,1,1,1.93-1.92v1.42Zm-1-1.43a0.9,0.9,0,1,0-.26.64A0.87,0.87,0,0,0,258.87,296.18Z" transform="translate(-55.31 -254.45)"/><path class="cls-3" d="M266.06,296a2.31,2.31,0,0,1-.47,1.45,2.06,2.06,0,0,1-1.26.77V299a0.5,0.5,0,0,1-.15.36,0.49,0.49,0,0,1-.36.15q-0.53,0-.53-0.83,0-.12,0-0.32c0-.13,0-0.21,0-0.25a2.06,2.06,0,0,1-1.26-.77,2.3,2.3,0,0,1-.47-1.44v-1.13a0.48,0.48,0,0,1,.15-0.36,0.5,0.5,0,0,1,.36-0.15,0.5,0.5,0,0,1,.37.15,0.5,0.5,0,0,1,.15.36v1.12a1.21,1.21,0,0,0,.33.89,1.34,1.34,0,0,0,1.76,0,1.21,1.21,0,0,0,.33-0.89v-1.12a0.5,0.5,0,0,1,.15-0.36,0.51,0.51,0,0,1,.73,0,0.51,0.51,0,0,1,.15.36V296Z" transform="translate(-55.31 -254.45)"/></svg>